<?xml version="1.0" encoding="utf-8"?>
<!-- Generator: Adobe Illustrator 16.0.3, SVG Export Plug-In . SVG Version: 6.00 Build 0)  -->
<!DOCTYPE svg PUBLIC "-//W3C//DTD SVG 1.1//EN" "http://www.w3.org/Graphics/SVG/1.1/DTD/svg11.dtd">
<svg version="1.1" id="Capa_1" xmlns="http://www.w3.org/2000/svg" xmlns:xlink="http://www.w3.org/1999/xlink" x="0px" y="0px"
	 width="141.732px" height="141.254px" viewBox="226.779 350.313 141.732 141.254"
	 enable-background="new 226.779 350.313 141.732 141.254" xml:space="preserve">
<g>
	<g>
		<polygon fill="#EFEBDE" points="336.374,384.408 302.278,350.313 226.779,350.313 226.779,491.567 336.374,491.567 		"/>
		<g>
			<path fill="#D5D0BB" d="M251.133,406.327h60.886c1.345,0,2.436-1.088,2.436-2.435c0-1.347-1.091-2.436-2.436-2.436h-60.886
				c-1.344,0-2.436,1.088-2.436,2.436C248.698,405.239,249.789,406.327,251.133,406.327z"/>
			<path fill="#D5D0BB" d="M251.133,386.844h24.354c1.344,0,2.436-1.088,2.436-2.436c0-1.347-1.091-2.435-2.436-2.435h-24.354
				c-1.344,0-2.436,1.088-2.436,2.435C248.698,385.756,249.789,386.844,251.133,386.844z"/>
			<path fill="#D5D0BB" d="M312.019,420.94h-60.886c-1.344,0-2.436,1.089-2.436,2.436s1.091,2.436,2.436,2.436h60.886
				c1.345,0,2.436-1.089,2.436-2.436S313.364,420.94,312.019,420.94z"/>
			<path fill="#D5D0BB" d="M312.019,440.424h-60.886c-1.344,0-2.436,1.089-2.436,2.436s1.091,2.436,2.436,2.436h60.886
				c1.345,0,2.436-1.089,2.436-2.436S313.364,440.424,312.019,440.424z"/>
			<path fill="#D5D0BB" d="M312.019,459.907h-60.886c-1.344,0-2.436,1.089-2.436,2.436s1.091,2.436,2.436,2.436h60.886
				c1.345,0,2.436-1.089,2.436-2.436S313.364,459.907,312.019,459.907z"/>
		</g>
		<polygon fill="#D5D0BB" points="302.278,350.313 302.278,384.408 336.374,384.408 		"/>
	</g>
	<g>
		<path fill="#FFFFFF" d="M365.598,467.681l-0.26,0.396c-17.343,26.487-45.721,26.487-63.061,0l0,0l0.26-0.396
			C319.878,441.191,348.256,441.191,365.598,467.681L365.598,467.681z"/>
		<circle fill="#556080" cx="333.364" cy="462.123" r="14.391"/>
		<path fill="#8697CB" d="M333.809,490.38c-12.796,0-24.715-7.448-33.567-20.967l-0.872-1.332l1.133-1.732
			c8.853-13.521,20.773-20.966,33.569-20.966c12.794,0,24.715,7.444,33.567,20.966l0.872,1.333l-1.132,1.731
			C358.524,482.934,346.602,490.38,333.809,490.38z M305.208,468.068c7.808,11.262,17.915,17.44,28.602,17.44
			c10.804,0,21.018-6.317,28.859-17.82c-7.808-11.262-17.915-17.44-28.599-17.44C323.264,450.251,313.049,456.566,305.208,468.068z"
			/>
	</g>
</g>
</svg>
