<?xml version="1.0" encoding="utf-8"?>
<!-- Generator: Adobe Illustrator 16.0.3, SVG Export Plug-In . SVG Version: 6.00 Build 0)  -->
<!DOCTYPE svg PUBLIC "-//W3C//DTD SVG 1.1//EN" "http://www.w3.org/Graphics/SVG/1.1/DTD/svg11.dtd">
<svg version="1.1" id="Capa_1" xmlns="http://www.w3.org/2000/svg" xmlns:xlink="http://www.w3.org/1999/xlink" x="0px" y="0px"
	 width="141.731px" height="141.732px" viewBox="226.774 350.08 141.731 141.732"
	 enable-background="new 226.774 350.08 141.731 141.732" xml:space="preserve">
<circle fill="#D9EFFD" cx="297.64" cy="420.943" r="57.854"/>
<circle fill="#B2E0F9" cx="297.64" cy="420.943" r="57.854"/>
<path fill="#FEDC36" d="M297.661,363.089c-0.007,0-0.015,0-0.021,0c-31.953,0-57.854,25.902-57.854,57.854c0,0.001,0,0.002,0,0.002
	h57.876L297.661,363.089L297.661,363.089z"/>
<path fill="#52B6FC" d="M239.786,420.945c0.001,31.952,25.902,57.854,57.854,57.854c0.008,0,0.015-0.001,0.021-0.001v-57.853
	H239.786z"/>
<path fill="#265185" d="M355.494,420.945h-57.833v57.853C329.602,478.785,355.493,452.888,355.494,420.945z"/>
<path fill="#183866" d="M355.494,420.945h-57.833v57.853C329.602,478.785,355.493,452.888,355.494,420.945z"/>
<g>
	<path fill="#EA0016" d="M368.506,491.811h-52.494v-4.151c0-12.31,10.016-22.321,22.322-22.321h7.85
		c12.309,0,22.321,10.013,22.321,22.321L368.506,491.811L368.506,491.811z"/>
	<path fill="#EA0016" d="M368.506,400.158h-52.494v-4.151c0-12.309,10.016-22.322,22.322-22.322h7.85
		c12.309,0,22.321,10.015,22.321,22.322L368.506,400.158L368.506,400.158z"/>
</g>
<g>
	<path fill="#C30010" d="M346.184,465.339h-3.977v26.474h26.298v-4.152C368.506,475.351,358.492,465.339,346.184,465.339z"/>
	<path fill="#C30010" d="M346.184,373.683h-3.977v26.475h26.298v-4.15C368.506,383.697,358.492,373.683,346.184,373.683z"/>
</g>
<path fill="#EA0016" d="M279.269,400.158h-52.495v-4.151c0-12.31,10.014-22.322,22.321-22.322h7.85
	c12.309,0,22.322,10.015,22.322,22.322L279.269,400.158L279.269,400.158z"/>
<g>
	<path fill="#D9EFFD" d="M278.132,420.945l-29.483,30.776c1.503,2.387,3.173,4.655,4.997,6.789l35.986-37.565H278.132z"/>
	<path fill="#D9EFFD" d="M297.661,428.402l-37.019,37.019c2.155,1.794,4.44,3.433,6.843,4.903l30.178-30.178L297.661,428.402
		L297.661,428.402z"/>
	<path fill="#D9EFFD" d="M252.698,420.945l-11.724,11.726c0.644,3.124,1.542,6.156,2.668,9.076l20.801-20.802H252.698
		L252.698,420.945z"/>
	<path fill="#D9EFFD" d="M297.661,454.66l-20.43,20.432c2.938,1.108,5.992,1.984,9.138,2.604l11.292-11.292V454.66z"/>
</g>
<path fill="#EA0016" d="M279.269,491.811h-52.495v-4.151c0-12.31,10.014-22.321,22.321-22.321h7.85
	c12.309,0,22.323,10.013,22.323,22.321L279.269,491.811L279.269,491.811z"/>
<g>
	<path fill="#C30010" d="M256.945,373.683h-3.874v26.475h26.197v-4.15C279.269,383.697,269.254,373.683,256.945,373.683z"/>
	<path fill="#C30010" d="M256.945,465.339h-3.874v26.474h26.197v-4.152C279.269,475.351,269.254,465.339,256.945,465.339z"/>
</g>
<g>
	<path fill="#FFDFCF" d="M252.992,381.989c-8.796,0-15.954-7.158-15.954-15.955c0-8.798,7.158-15.954,15.954-15.954
		c8.799,0,15.956,7.156,15.956,15.954C268.948,374.831,261.791,381.989,252.992,381.989z"/>
	<path fill="#FFDFCF" d="M252.992,473.642c-8.796,0-15.954-7.158-15.954-15.954c0-8.799,7.158-15.955,15.954-15.955
		c8.799,0,15.956,7.156,15.956,15.955C268.948,466.484,261.791,473.642,252.992,473.642z"/>
</g>
<g>
	<path fill="#FFCEBF" d="M253.071,350.082v31.905c8.761-0.043,15.877-7.182,15.877-15.953S261.832,350.124,253.071,350.082z"/>
	<path fill="#FFCEBF" d="M253.071,441.736v31.904c8.761-0.043,15.877-7.182,15.877-15.952
		C268.948,448.917,261.832,441.778,253.071,441.736z"/>
</g>
<g>
	<path fill="#FFDFCF" d="M342.231,473.642c-8.798,0-15.954-7.158-15.954-15.954c0-8.799,7.156-15.955,15.954-15.955
		s15.955,7.156,15.955,15.955C358.186,466.484,351.028,473.642,342.231,473.642z"/>
	<path fill="#FFDFCF" d="M342.231,381.989c-8.798,0-15.954-7.158-15.954-15.955c0-8.798,7.156-15.954,15.954-15.954
		s15.955,7.156,15.955,15.954C358.186,374.831,351.028,381.989,342.231,381.989z"/>
</g>
<g>
	<path fill="#FFCEBF" d="M342.231,441.734c-0.008,0-0.015,0-0.021,0v31.908c0.007,0,0.015,0,0.021,0
		c8.798,0,15.955-7.158,15.955-15.954C358.186,448.889,351.028,441.734,342.231,441.734z"/>
	<path fill="#FFCEBF" d="M342.231,350.08c-0.008,0-0.015,0.001-0.021,0.001v31.908c0.007,0,0.015,0,0.021,0
		c8.798,0,15.955-7.158,15.955-15.955S351.028,350.08,342.231,350.08z"/>
</g>
</svg>
