<?xml version="1.0" encoding="utf-8"?>
<!-- Generator: Adobe Illustrator 16.0.3, SVG Export Plug-In . SVG Version: 6.00 Build 0)  -->
<!DOCTYPE svg PUBLIC "-//W3C//DTD SVG 1.1//EN" "http://www.w3.org/Graphics/SVG/1.1/DTD/svg11.dtd">
<svg version="1.1" id="Layer_1" xmlns="http://www.w3.org/2000/svg" xmlns:xlink="http://www.w3.org/1999/xlink" x="0px" y="0px"
	 width="141.732px" height="148.429px" viewBox="226.775 346.731 141.732 148.429"
	 enable-background="new 226.775 346.731 141.732 148.429" xml:space="preserve">
<path fill="#463836" d="M368.506,481.458l-43.854,6.598l-43.854-6.598c0-8.312,0-112.571,0-121.025l43.854-6.597l43.854,6.597
	V481.458z"/>
<g>
	<path fill="#6FC5D6" d="M368.506,360.433h-87.708c0-0.076,0-0.146,0-0.208c0-7.421,6.072-13.494,13.494-13.494h60.721
		c7.422,0,13.494,6.072,13.494,13.494L368.506,360.433L368.506,360.433z"/>
	<path fill="#6FC5D6" d="M368.506,481.666c0,7.422-6.072,13.494-13.493,13.494h-60.721c-7.421,0-13.494-6.072-13.494-13.494
		c0-0.059,0-0.129,0-0.208h87.708V481.666z"/>
</g>
<path fill="#FFD24D" d="M333.922,408.107c-0.83,0-1.64-0.417-2.107-1.175c-0.718-1.163-0.356-2.687,0.806-3.404
	c4.526-2.794,7.229-7.632,7.229-12.943c0-8.379-6.818-15.196-15.197-15.196c-5.338,0-10.35,2.856-13.079,7.454
	c-0.696,1.175-2.214,1.562-3.389,0.864c-1.176-0.697-1.563-2.215-0.865-3.39c3.615-6.091,10.258-9.875,17.334-9.875
	c11.107,0,20.144,9.037,20.144,20.144c0,7.039-3.58,13.452-9.577,17.153C334.815,407.988,334.366,408.107,333.922,408.107z"/>
<g>
	<path fill="#F99D88" d="M329.838,457.321l-9.799-0.469l-0.469-9.798c2.836-2.836,7.431-2.836,10.268,0
		C332.674,449.89,332.674,454.485,329.838,457.321z"/>
	<path fill="#F99D88" d="M319.572,447.054l-9.799-0.469l-0.468-9.798c2.835-2.837,7.431-2.837,10.267,0
		C322.408,439.624,322.408,444.219,319.572,447.054z"/>
	<path fill="#F99D88" d="M309.305,436.788l-9.799-0.47l-0.469-9.798c2.836-2.836,7.431-2.836,10.268,0
		C312.14,429.356,312.14,433.951,309.305,436.788z"/>
</g>
<path fill="#FAD4C6" d="M299.038,426.52l30.351-30.351c2.836-2.836,2.836-7.431,0-10.267s-7.431-2.836-10.267,0
	c0,0-42.402,42.402-49.094,49.093c-6.895,6.895-9.721,16.279-8.319,25.229l-34.934,34.935h48.315l10.776-10.776
	c8.949,1.401,18.335-1.425,25.229-8.319c7.689-7.689,18.743-18.743,18.743-18.743L299.038,426.52z"/>
</svg>
