<?xml version="1.0" encoding="utf-8"?>
<!-- Generator: Adobe Illustrator 16.0.3, SVG Export Plug-In . SVG Version: 6.00 Build 0)  -->
<!DOCTYPE svg PUBLIC "-//W3C//DTD SVG 1.1//EN" "http://www.w3.org/Graphics/SVG/1.1/DTD/svg11.dtd">
<svg version="1.1" id="Layer_1" xmlns="http://www.w3.org/2000/svg" xmlns:xlink="http://www.w3.org/1999/xlink" x="0px" y="0px"
	 width="89.861px" height="90.11px" viewBox="211.066 210.945 89.861 90.11" enable-background="new 211.066 210.945 89.861 90.11"
	 xml:space="preserve">
<g>
	<g>
		<path fill="#933EC5" d="M234.917,263.678c0-0.735,0.184-1.429,0.506-2.039h-6.187v32.263c0,2.258,1.831,4.09,4.091,4.09
			c2.258,0,4.089-1.832,4.089-4.09v-26.271C235.941,266.928,234.917,265.42,234.917,263.678z"/>
	</g>
</g>
<g>
	<g>
		<path fill="#933EC5" d="M224.783,257.498c-0.014-0.006-0.027-0.011-0.044-0.017l-5.374-2.138c0,0-0.074,3.388-0.074,38.559
			c0,2.26,1.831,4.09,4.091,4.09c2.258,0,4.089-1.83,4.089-4.09v-32.387C225.734,261.052,224.542,259.359,224.783,257.498z"/>
	</g>
</g>
<g>
	<g>
		<path fill="#933EC5" d="M228.307,210.945c-3.906,0-7.063,3.167-7.063,7.063c0,3.894,3.161,7.065,7.063,7.065
			c3.9,0,7.064-3.162,7.064-7.065C235.373,214.109,232.212,210.945,228.307,210.945z"/>
	</g>
</g>
<g>
	<g>
		<path fill="#933EC5" d="M242.324,240.417h-10.572c-0.404,0-0.753,0.287-0.831,0.683l-1.085,5.444
			c2.673,1.432,3.903,4.673,2.756,7.558c-0.862,2.166-2.838,3.554-5.008,3.776c-0.058,0.521,0.346,0.939,0.839,0.939h10.571
			c0.403,0,0.754-0.285,0.832-0.681l3.331-16.706C243.26,240.906,242.857,240.417,242.324,240.417z"/>
	</g>
</g>
<g>
	<g>
		<path fill="#933EC5" d="M259.254,235.465l-10.769,0.498l-11.524-7.282c-0.546-0.345-1.178-0.527-1.822-0.527
			c-2.968,0-12.978,0-15.952,0c-4.426,0-8.044,3.601-8.066,8.024c-0.01,2.08-0.043,8.594-0.054,10.699
			c-0.006,1.4,0.846,2.665,2.148,3.184l12.498,4.973c1.747,0.696,3.73-0.158,4.426-1.907c0.696-1.749-0.158-3.731-1.907-4.428
			l-10.336-4.112c0.014-2.892,0.008-1.529,0.042-8.372l0,0c0.032-0.383,0.361-0.67,0.743-0.653c0.383,0.018,0.684,0.333,0.684,0.716
			v6.059l7.813,3.106l0.977-4.893c0.341-1.712,1.854-2.951,3.598-2.951c6.217,0,4.521,0,10.572,0c2.316,0,4.05,2.118,3.598,4.385
			l-0.073,0.374c1.019,0.306,2.064,0.438,3.128,0.396c0.74-0.027,1.67-0.065,2.647-0.111c0.34-1.223,0.93-2.38,1.76-3.392
			c1.497-1.831,3.603-3,5.908-3.319C259.275,235.775,259.261,235.621,259.254,235.465z"/>
	</g>
</g>
<g>
	<g>
		<path fill="#933EC5" d="M280.921,268.734v22.164c0,1.155,0.938,2.094,2.094,2.094c1.157,0,2.094-0.938,2.094-2.094v-22.164
			H280.921z"/>
	</g>
</g>
<g>
	<g>
		<path fill="#933EC5" d="M252.325,268.734v22.164l0,0c0,1.155,0.939,2.094,2.095,2.094c1.156,0,2.094-0.938,2.094-2.094v-22.164
			H252.325z"/>
	</g>
</g>
<g>
	<g>
		<path fill="#933EC5" d="M259.84,268.734V294l0,0c0,2.207,1.786,3.992,3.991,3.992c2.206,0,3.993-1.787,3.993-3.992v-25.266H259.84
			z"/>
	</g>
</g>
<g>
	<g>
		<path fill="#933EC5" d="M269.547,268.734V294l0,0c0,2.207,1.788,3.992,3.992,3.992c2.205,0,3.993-1.787,3.993-3.992v-25.266
			H269.547z"/>
	</g>
</g>
<g>
	<g>
		<path fill="#933EC5" d="M241.281,268.054v29.906c0,1.711,1.386,3.096,3.097,3.096c1.709,0,3.095-1.386,3.095-3.096v-29.906
			H241.281z"/>
	</g>
</g>
<g>
	<g>
		<path fill="#933EC5" d="M268.684,228.064c-3.808,0-6.896,3.087-6.896,6.895c0,1.214,0.313,2.353,0.864,3.343
			c1.681-1.033,3.816-1.275,5.777-0.464c1.563,0.646,2.729,1.842,3.372,3.268c2.24-1.139,3.775-3.463,3.775-6.146
			C275.579,231.151,272.491,228.064,268.684,228.064z"/>
	</g>
</g>
<g>
	<g>
		<path fill="#933EC5" d="M298.91,261.662c-1.409,0-10.958,0-12.286,0c1.493-0.665,2.273-2.306,1.869-3.871
			c-0.343-1.325-2.956-11.445-3.291-12.747c-0.939-3.64-4.059-6.256-7.743-6.6c-0.933,2.339-2.772,4.223-5.088,5.207
			c0.012,0.877-0.166,1.747-0.483,2.512l-2.78,6.724c0.751-0.364,1.582-0.588,2.459-0.631l1.888-4.565
			c0.326-0.79,1.232-1.166,2.021-0.84c0.79,0.327,1.167,1.233,0.839,2.021l-1.394,3.375h2.539v-5.376
			c0-0.332,0.248-0.613,0.577-0.656c0.328-0.041,0.64,0.169,0.724,0.492c1.056,4.091,1.146,4.439,2.217,8.587h-7.906
			c-1.838,0-3.326,1.489-3.326,3.328c0,1.354,0.812,2.518,1.976,3.038h-10.532c0.762-0.34,1.392-0.958,1.725-1.768L269.07,245
			c0.702-1.697-0.105-3.643-1.804-4.347c-1.697-0.701-3.643,0.106-4.345,1.804l-1.99,4.813l-1.643-4.33l1.472-2.849
			c-0.336-0.519-0.623-1.071-0.854-1.651c-1.771,0.177-3.397,1.04-4.54,2.436c-1.283,1.569-1.788,3.61-1.386,5.598l2.596,12.812
			c0.219,1.074,0.942,1.947,1.903,2.376c-2.468,0-19.188,0-19.188,0c-1.115,0-2.018,0.904-2.018,2.018
			c0,1.114,0.902,2.02,2.018,2.02c2.31,0,49.312,0,51.254,0v32.263c0,1.711,1.386,3.096,3.095,3.096c1.71,0,3.098-1.386,3.098-3.096
			v-32.266h2.171c1.116,0,2.019-0.902,2.019-2.017C300.928,262.566,300.025,261.662,298.91,261.662z"/>
	</g>
</g>
</svg>
