<?xml version="1.0" encoding="utf-8"?>
<!-- Generator: Adobe Illustrator 16.0.3, SVG Export Plug-In . SVG Version: 6.00 Build 0)  -->
<!DOCTYPE svg PUBLIC "-//W3C//DTD SVG 1.1//EN" "http://www.w3.org/Graphics/SVG/1.1/DTD/svg11.dtd">
<svg version="1.1" id="Capa_1" xmlns="http://www.w3.org/2000/svg" xmlns:xlink="http://www.w3.org/1999/xlink" x="0px" y="0px"
	 width="141.732px" height="141.732px" viewBox="226.774 350.079 141.732 141.732"
	 enable-background="new 226.774 350.079 141.732 141.732" xml:space="preserve">
<circle fill="#FF3501" cx="297.64" cy="420.945" r="70.866"/>
<path fill="#C70024" d="M311.988,379.022c-6.418-6.458-15.308-10.456-25.131-10.456c-19.569,0-35.433,15.864-35.433,35.433
	c0,9.824,3.998,18.713,10.455,25.131l35.762,35.762v5.352l19.104,18.949v0.014c25.672-7.169,45.463-28.432,50.509-54.921
	L311.988,379.022z"/>
<circle fill="#ACABB1" cx="286.856" cy="403.999" r="35.433"/>
<path fill="#898890" d="M286.856,368.566v70.866c19.569,0,35.433-15.863,35.433-35.433
	C322.29,384.43,306.425,368.566,286.856,368.566z"/>
<circle fill="#FFFFFF" cx="286.856" cy="403.999" r="30.546"/>
<path fill="#D8D7DA" d="M286.856,373.453v61.091c16.87,0,30.545-13.676,30.545-30.545S303.726,373.453,286.856,373.453z"/>
<polygon points="305.883,390.109 300.699,384.925 285.291,400.334 270.973,400.334 270.973,407.665 288.246,407.665 "/>
<rect x="297.64" y="411.702" fill="#FFFFFF" width="43.136" height="58.542"/>
<rect x="319.208" y="411.702" fill="#E1E3FA" width="21.567" height="58.542"/>
<g>
	<rect x="316.127" y="454.838" fill="#C6C5CA" width="18.486" height="3.081"/>
	<circle fill="#C6C5CA" cx="308.424" cy="456.379" r="4.622"/>
	<rect x="316.127" y="439.432" fill="#C6C5CA" width="18.486" height="3.081"/>
</g>
<polygon points="306.929,445.594 302.814,441.952 304.731,439.787 306.606,441.447 310.817,436.351 313.046,438.193 "/>
<rect x="316.127" y="424.026" fill="#C6C5CA" width="18.486" height="3.081"/>
<polygon points="306.929,430.189 302.814,426.547 304.731,424.382 306.606,426.041 310.817,420.946 313.046,422.788 "/>
</svg>
