<?xml version="1.0" encoding="utf-8"?>
<!-- Generator: Adobe Illustrator 16.0.3, SVG Export Plug-In . SVG Version: 6.00 Build 0)  -->
<!DOCTYPE svg PUBLIC "-//W3C//DTD SVG 1.1//EN" "http://www.w3.org/Graphics/SVG/1.1/DTD/svg11.dtd">
<svg version="1.1" id="Layer_1" xmlns="http://www.w3.org/2000/svg" xmlns:xlink="http://www.w3.org/1999/xlink" x="0px" y="0px"
	 width="141.732px" height="141.732px" viewBox="226.774 350.079 141.732 141.732"
	 enable-background="new 226.774 350.079 141.732 141.732" xml:space="preserve">
<path fill="#E6EAEA" d="M366.287,387.805H228.994c-1.226,0-2.219,0.994-2.219,2.22v99.567c0,1.226,0.993,2.219,2.219,2.219h137.294
	c1.226,0,2.219-0.993,2.219-2.219v-99.567C368.506,388.799,367.513,387.805,366.287,387.805z"/>
<path fill="#FD6A33" d="M313.027,395.055h-73.381c-1.226,0-2.219,0.994-2.219,2.219v17.753c0,1.226,0.993,2.22,2.219,2.22h73.381
	c1.226,0,2.22-0.994,2.22-2.22v-17.753C315.246,396.049,314.252,395.055,313.027,395.055z"/>
<path fill="#FF8C29" d="M333.147,424.644h-93.501c-1.226,0-2.219,0.993-2.219,2.219v17.754c0,1.226,0.993,2.22,2.219,2.22h93.501
	c1.227,0,2.22-0.994,2.22-2.22v-17.754C335.367,425.637,334.374,424.644,333.147,424.644z"/>
<path fill="#4ACFD9" d="M350.901,454.233H239.646c-1.226,0-2.219,0.994-2.219,2.22v17.753c0,1.226,0.993,2.22,2.219,2.22h111.255
	c1.226,0,2.22-0.993,2.22-2.22v-17.753C353.121,455.227,352.126,454.233,350.901,454.233z"/>
<path fill="#CDD4D5" d="M228.994,387.805c-1.226,0-2.219,0.994-2.219,2.22v99.567c0,1.226,0.993,2.219,2.219,2.219h68.646V387.805
	H228.994z"/>
<path fill="#F0353D" d="M239.646,395.055c-1.226,0-2.219,0.994-2.219,2.219v17.753c0,1.226,0.993,2.22,2.219,2.22h57.995v-22.192
	H239.646L239.646,395.055z"/>
<path fill="#FD6A33" d="M239.646,424.644c-1.226,0-2.219,0.993-2.219,2.219v17.754c0,1.226,0.993,2.22,2.219,2.22h57.995v-22.192
	H239.646L239.646,424.644z"/>
<path fill="#0295AA" d="M239.646,454.233c-1.226,0-2.219,0.994-2.219,2.22v17.753c0,1.226,0.993,2.22,2.219,2.22h57.995v-22.191
	L239.646,454.233L239.646,454.233z"/>
<path fill="#365558" d="M297.64,491.811c-1.226,0-2.219-0.993-2.219-2.219V383.072c0-1.226,0.993-2.219,2.219-2.219
	c1.226,0,2.22,0.993,2.22,2.219v106.521C299.86,490.818,298.866,491.811,297.64,491.811z"/>
<path fill="#9BAAAB" d="M311.843,350.079h-29.589c-1.226,0-2.219,0.994-2.219,2.219v20.925c0,0.757,0.386,1.461,1.023,1.869
	l15.386,9.848c0.365,0.233,0.781,0.35,1.196,0.35c0.443,0,0.885-0.132,1.265-0.396l14.203-9.847
	c0.598-0.415,0.954-1.096,0.954-1.824v-20.925C314.062,351.073,313.069,350.079,311.843,350.079z"/>
<path fill="#687F82" d="M282.254,350.079c-1.226,0-2.219,0.994-2.219,2.219v20.925c0,0.757,0.386,1.461,1.023,1.869l15.386,9.848
	c0.365,0.233,0.781,0.35,1.196,0.35v-35.211H282.254z"/>
<path fill="#FFFFFF" d="M302.375,369.904c-1.226,0-2.22-0.993-2.22-2.219V359.4c0-1.226,0.994-2.22,2.22-2.22s2.22,0.994,2.22,2.22
	v8.285C304.594,368.911,303.6,369.904,302.375,369.904z"/>
</svg>
